{
  "title": "Kingsman: The Secret Service CAM Xvid-TD",
  "uid": 11711439,
  "size": 1609112388,
  "categoryP": "video",
  "categoryS": "movies",
  "magnet": "?xt=urn:btih:2621225afe3af4931f45241490059f7f1402c3be&amp;dn=Kingsman%3A+The+Secret+Service+CAM+Xvid-TD&amp;tr=udp%3A%2F%2Ftracker.openbittorrent.com%3A80&amp;tr=udp%3A%2F%2Fopen.demonii.com%3A1337&amp;tr=udp%3A%2F%2Ftracker.coppersurfer.tk%3A6969&amp;tr=udp%3A%2F%2Fexodus.desync.com%3A6969",
  "seeders": 51,
  "leechers": 1,
  "uploader": "xxxlavalxxx",
  "files": 2,
  "time": 1424359903,
  "description": "[img]http://i.imgur.com/trovI3R.jpg[/img]\n\n &lt;a href=&quot;\nhttp://www.imdb.com/title/tt2802144/&quot; rel=&quot;nofollow&quot; target=&quot;_NEW&quot;&gt;\nhttp://www.imdb.com/title/tt2802144/&lt;/a&gt;\n\n\nA spy organization recruits an unrefined, but promising street kid into the agency's ultra-competitive training program just as a global threat emerges from a twisted tech genius.\n\nDirector: Matthew Vaughn\nWriters: Jane Goldman (screenplay), Matthew Vaughn (screenplay)\nStars: Colin Firth, Taron Egerton, Samuel L. Jackson\nGenres: Action | Adventure | Comedy | Crime\nCountry: UK\nLanguage: English | Arabic | Swedish\n\n\ncomplete name               : Kingsman The Secret Service Cam.avi\nFormat                      : AVI\nFormat/Info                 : Audio Video Interleave\nFormat profile              : OpenDML\nFile size                   : 1.50 GiB\nDuration                    : 1h 50mn\nOverall bit rate            : 1 943 Kbps\nWriting application         : Lavf51.12.1\n\nVideo\nID                          : 0\nFormat                      : xvid\nCodec ID                    : xvid\nDuration                    : 1h 50mn\nBit rate                    : 1 800 Kbps\nWidth                       : 720 pixels\nHeight                      : 332 pixels\nDisplay aspect ratio        : 2.2:1\nFrame rate                  : 29.970 fps\nBits/(Pixel*Frame)          : 0.251\nStream size                 : 1.39 GiB (93%)\n\nAudio\nID                          : 1\nFormat                      : MPEG Audio\nFormat version              : Version 1\nFormat profile              : Layer 3\nMode                        : Joint stereo\nCodec ID                    : 55\nCodec ID/Hint               : MP3\nDuration                    : 1h 50mn\nBit rate mode               : Constant\nBit rate                    : 128 Kbps\nChannel(s)                  : 2 channels\nSampling rate               : 44.1 KHz\nCompression mode            : Lossy\nStream size                 : 101 MiB (7%)\nAlignment                   : Aligned on interleaves\nInterleave, duration        : 26 ms (0.78 video frame)\nInterleave, preload duratio : 26 ms\nWriting library             : LAME3.97\n\n &lt;a href=&quot;\nhttp://i.imgur.com/ilJTRDl.jpg&quot; rel=&quot;nofollow&quot; target=&quot;_NEW&quot;&gt;\nhttp://i.imgur.com/ilJTRDl.jpg&lt;/a&gt; &lt;a href=&quot;\nhttp://i.imgur.com/u3kQjOX.jpg&quot; rel=&quot;nofollow&quot; target=&quot;_NEW&quot;&gt;\nhttp://i.imgur.com/u3kQjOX.jpg&lt;/a&gt; &lt;a href=&quot;\nhttp://i.imgur.com/uCRySGL.jpg&quot; rel=&quot;nofollow&quot; target=&quot;_NEW&quot;&gt;\nhttp://i.imgur.com/uCRySGL.jpg&lt;/a&gt; &lt;a href=&quot;\nhttp://i.imgur.com/V5xhCrG.jpg&quot; rel=&quot;nofollow&quot; target=&quot;_NEW&quot;&gt;\nhttp://i.imgur.com/V5xhCrG.jpg&lt;/a&gt; &lt;a href=&quot;\nhttp://i.imgur.com/USK2adG.jpg&quot; rel=&quot;nofollow&quot; target=&quot;_NEW&quot;&gt;\nhttp://i.imgur.com/USK2adG.jpg&lt;/a&gt; &lt;a href=&quot;\nhttp://i.imgur.com/OEMu3bs.jpg&quot; rel=&quot;nofollow&quot; target=&quot;_NEW&quot;&gt;\nhttp://i.imgur.com/OEMu3bs.jpg&lt;/a&gt;",
  "parsed": {
    "xt": "urn:btih:2621225afe3af4931f45241490059f7f1402c3be",
    "dn": "Kingsman: The Secret Service CAM Xvid-TD",
    "tr": [
      "udp://exodus.desync.com:6969",
      "udp://open.demonii.com:1337",
      "udp://tracker.coppersurfer.tk:6969",
      "udp://tracker.openbittorrent.com:80"
    ],
    "infoHash": "2621225afe3af4931f45241490059f7f1402c3be",
    "infoHashBuffer": {
      "type": "Buffer",
      "data": [
        38,
        33,
        34,
        90,
        254,
        58,
        244,
        147,
        31,
        69,
        36,
        20,
        144,
        5,
        159,
        127,
        20,
        2,
        195,
        190
      ]
    },
    "name": "Kingsman: The Secret Service CAM Xvid-TD",
    "announce": [
      "udp://exodus.desync.com:6969",
      "udp://open.demonii.com:1337",
      "udp://tracker.coppersurfer.tk:6969",
      "udp://tracker.openbittorrent.com:80"
    ],
    "urlList": []
  },
  "previous": 11,
  "peers": 9,
  "last_updated": "2016-12-26T19:17:51.432Z"
}